<?xml version="1.0" encoding="UTF-8"?>
<!--Generator: Apple Native CoreSVG 123-->
<!DOCTYPE svg
PUBLIC "-//W3C//DTD SVG 1.1//EN"
       "http://www.w3.org/Graphics/SVG/1.1/DTD/svg11.dtd">
<svg version="1.1" xmlns="http://www.w3.org/2000/svg" xmlns:xlink="http://www.w3.org/1999/xlink" width="3300" height="2200">
 <!--glyph: "uni100328.medium", point size: 100.000000, font version: "Version 15.0d7e11", template writer version: "5"-->
 <g id="Notes">
  <rect height="2200" id="artboard" style="fill:white;opacity:1" width="3300" x="0" y="0"/>
  <line id="" style="fill:none;stroke:black;opacity:1;stroke-width:0.5;" x1="263" x2="3036" y1="292" y2="292"/>
  <text style="stroke:none;fill:black;font-family:-apple-system,&quot;SF Pro Display&quot;,&quot;SF Pro Text&quot;,Helvetica,sans-serif;font-weight:bold;" transform="matrix(1 0 0 1 263 322)">Weight/Scale Variations</text>
  <text style="stroke:none;fill:black;font-family:-apple-system,&quot;SF Pro Display&quot;,&quot;SF Pro Text&quot;,Helvetica,sans-serif;text-anchor:middle;" transform="matrix(1 0 0 1 559.711 322)">Ultralight</text>
  <text style="stroke:none;fill:black;font-family:-apple-system,&quot;SF Pro Display&quot;,&quot;SF Pro Text&quot;,Helvetica,sans-serif;text-anchor:middle;" transform="matrix(1 0 0 1 856.422 322)">Thin</text>
  <text style="stroke:none;fill:black;font-family:-apple-system,&quot;SF Pro Display&quot;,&quot;SF Pro Text&quot;,Helvetica,sans-serif;text-anchor:middle;" transform="matrix(1 0 0 1 1153.13 322)">Light</text>
  <text style="stroke:none;fill:black;font-family:-apple-system,&quot;SF Pro Display&quot;,&quot;SF Pro Text&quot;,Helvetica,sans-serif;text-anchor:middle;" transform="matrix(1 0 0 1 1449.84 322)">Regular</text>
  <text style="stroke:none;fill:black;font-family:-apple-system,&quot;SF Pro Display&quot;,&quot;SF Pro Text&quot;,Helvetica,sans-serif;text-anchor:middle;" transform="matrix(1 0 0 1 1746.56 322)">Medium</text>
  <text style="stroke:none;fill:black;font-family:-apple-system,&quot;SF Pro Display&quot;,&quot;SF Pro Text&quot;,Helvetica,sans-serif;text-anchor:middle;" transform="matrix(1 0 0 1 2043.27 322)">Semibold</text>
  <text style="stroke:none;fill:black;font-family:-apple-system,&quot;SF Pro Display&quot;,&quot;SF Pro Text&quot;,Helvetica,sans-serif;text-anchor:middle;" transform="matrix(1 0 0 1 2339.98 322)">Bold</text>
  <text style="stroke:none;fill:black;font-family:-apple-system,&quot;SF Pro Display&quot;,&quot;SF Pro Text&quot;,Helvetica,sans-serif;text-anchor:middle;" transform="matrix(1 0 0 1 2636.69 322)">Heavy</text>
  <text style="stroke:none;fill:black;font-family:-apple-system,&quot;SF Pro Display&quot;,&quot;SF Pro Text&quot;,Helvetica,sans-serif;text-anchor:middle;" transform="matrix(1 0 0 1 2933.4 322)">Black</text>
  <line id="" style="fill:none;stroke:black;opacity:1;stroke-width:0.5;" x1="263" x2="3036" y1="1903" y2="1903"/>
  <g id="" transform="matrix(1 0 0 1 263 1933)">
   <path d="M 9.24805 0.830078 C 13.5547 0.830078 17.1387 -2.74414 17.1387 -7.05078 C 17.1387 -11.3574 13.5449 -14.9316 9.23828 -14.9316 C 4.94141 -14.9316 1.36719 -11.3574 1.36719 -7.05078 C 1.36719 -2.74414 4.95117 0.830078 9.24805 0.830078 Z M 9.24805 -0.654297 C 5.70312 -0.654297 2.87109 -3.49609 2.87109 -7.05078 C 2.87109 -10.6055 5.69336 -13.4473 9.23828 -13.4473 C 12.793 -13.4473 15.6348 -10.6055 15.6445 -7.05078 C 15.6543 -3.49609 12.8027 -0.654297 9.24805 -0.654297 Z M 9.22852 -3.42773 C 9.69727 -3.42773 9.9707 -3.74023 9.9707 -4.25781 L 9.9707 -6.31836 L 12.1973 -6.31836 C 12.6953 -6.31836 13.0371 -6.57227 13.0371 -7.04102 C 13.0371 -7.51953 12.7148 -7.7832 12.1973 -7.7832 L 9.9707 -7.7832 L 9.9707 -10.0098 C 9.9707 -10.5273 9.69727 -10.8496 9.22852 -10.8496 C 8.75977 -10.8496 8.50586 -10.5078 8.50586 -10.0098 L 8.50586 -7.7832 L 6.29883 -7.7832 C 5.78125 -7.7832 5.44922 -7.51953 5.44922 -7.04102 C 5.44922 -6.57227 5.80078 -6.31836 6.29883 -6.31836 L 8.50586 -6.31836 L 8.50586 -4.25781 C 8.50586 -3.75977 8.75977 -3.42773 9.22852 -3.42773 Z"/>
  </g>
  <g id="" transform="matrix(1 0 0 1 281.506 1933)">
   <path d="M 11.709 2.91016 C 17.1582 2.91016 21.6699 -1.60156 21.6699 -7.05078 C 21.6699 -12.4902 17.1484 -17.0117 11.6992 -17.0117 C 6.25977 -17.0117 1.74805 -12.4902 1.74805 -7.05078 C 1.74805 -1.60156 6.26953 2.91016 11.709 2.91016 Z M 11.709 1.25 C 7.09961 1.25 3.41797 -2.44141 3.41797 -7.05078 C 3.41797 -11.6504 7.08984 -15.3516 11.6992 -15.3516 C 16.3086 -15.3516 20 -11.6504 20.0098 -7.05078 C 20.0195 -2.44141 16.3184 1.25 11.709 1.25 Z M 11.6895 -2.41211 C 12.207 -2.41211 12.5195 -2.77344 12.5195 -3.33984 L 12.5195 -6.23047 L 15.5762 -6.23047 C 16.123 -6.23047 16.5039 -6.51367 16.5039 -7.03125 C 16.5039 -7.55859 16.1426 -7.86133 15.5762 -7.86133 L 12.5195 -7.86133 L 12.5195 -10.9277 C 12.5195 -11.5039 12.207 -11.8555 11.6895 -11.8555 C 11.1719 -11.8555 10.8789 -11.4844 10.8789 -10.9277 L 10.8789 -7.86133 L 7.83203 -7.86133 C 7.26562 -7.86133 6.89453 -7.55859 6.89453 -7.03125 C 6.89453 -6.51367 7.28516 -6.23047 7.83203 -6.23047 L 10.8789 -6.23047 L 10.8789 -3.33984 C 10.8789 -2.79297 11.1719 -2.41211 11.6895 -2.41211 Z"/>
  </g>
  <g id="" transform="matrix(1 0 0 1 304.924 1933)">
   <path d="M 14.9707 5.67383 C 21.9336 5.67383 27.6953 -0.078125 27.6953 -7.04102 C 27.6953 -14.0039 21.9238 -19.7559 14.9609 -19.7559 C 8.00781 -19.7559 2.25586 -14.0039 2.25586 -7.04102 C 2.25586 -0.078125 8.01758 5.67383 14.9707 5.67383 Z M 14.9707 3.85742 C 8.93555 3.85742 4.08203 -1.00586 4.08203 -7.04102 C 4.08203 -13.0762 8.92578 -17.9395 14.9609 -17.9395 C 21.0059 -17.9395 25.8594 -13.0762 25.8691 -7.04102 C 25.8789 -1.00586 21.0156 3.85742 14.9707 3.85742 Z M 14.9512 -1.06445 C 15.5176 -1.06445 15.8691 -1.45508 15.8691 -2.06055 L 15.8691 -6.13281 L 20.1074 -6.13281 C 20.6934 -6.13281 21.1133 -6.46484 21.1133 -7.02148 C 21.1133 -7.59766 20.7227 -7.93945 20.1074 -7.93945 L 15.8691 -7.93945 L 15.8691 -12.1875 C 15.8691 -12.8027 15.5176 -13.1934 14.9512 -13.1934 C 14.3848 -13.1934 14.0625 -12.7832 14.0625 -12.1875 L 14.0625 -7.93945 L 9.83398 -7.93945 C 9.21875 -7.93945 8.80859 -7.59766 8.80859 -7.02148 C 8.80859 -6.46484 9.23828 -6.13281 9.83398 -6.13281 L 14.0625 -6.13281 L 14.0625 -2.06055 C 14.0625 -1.47461 14.3848 -1.06445 14.9512 -1.06445 Z"/>
  </g>
  <text style="stroke:none;fill:black;font-family:-apple-system,&quot;SF Pro Display&quot;,&quot;SF Pro Text&quot;,Helvetica,sans-serif;font-weight:bold;" transform="matrix(1 0 0 1 263 1953)">Design Variations</text>
  <text style="stroke:none;fill:black;font-family:-apple-system,&quot;SF Pro Display&quot;,&quot;SF Pro Text&quot;,Helvetica,sans-serif;" transform="matrix(1 0 0 1 263 1971)">Symbols are supported in up to nine weights and three scales.</text>
  <text style="stroke:none;fill:black;font-family:-apple-system,&quot;SF Pro Display&quot;,&quot;SF Pro Text&quot;,Helvetica,sans-serif;" transform="matrix(1 0 0 1 263 1989)">For optimal layout with text and other symbols, vertically align</text>
  <text style="stroke:none;fill:black;font-family:-apple-system,&quot;SF Pro Display&quot;,&quot;SF Pro Text&quot;,Helvetica,sans-serif;" transform="matrix(1 0 0 1 263 2007)">symbols with the adjacent text.</text>
  <rect height="14" id="" style="fill:#00AEEF;stroke:none;opacity:0.4;" width="3" x="776" y="1919"/>
  <g id="" transform="matrix(1 0 0 1 779 1933)">
   <path d="M 10.5273 0 L 12.373 0 L 7.17773 -14.0918 L 5.43945 -14.0918 L 0.244141 0 L 2.08984 0 L 3.50586 -4.0332 L 9.11133 -4.0332 Z M 6.2793 -11.9531 L 6.33789 -11.9531 L 8.59375 -5.52734 L 4.02344 -5.52734 Z"/>
  </g>
  <rect height="14" id="" style="fill:#00AEEF;stroke:none;opacity:0.4;" width="3" x="791.617" y="1919"/>
  <text style="stroke:none;fill:black;font-family:-apple-system,&quot;SF Pro Display&quot;,&quot;SF Pro Text&quot;,Helvetica,sans-serif;font-weight:bold;" transform="matrix(1 0 0 1 776 1953)">Margins</text>
  <text style="stroke:none;fill:black;font-family:-apple-system,&quot;SF Pro Display&quot;,&quot;SF Pro Text&quot;,Helvetica,sans-serif;" transform="matrix(1 0 0 1 776 1971)">Leading and trailing margins on the left and right side of each symbol</text>
  <text style="stroke:none;fill:black;font-family:-apple-system,&quot;SF Pro Display&quot;,&quot;SF Pro Text&quot;,Helvetica,sans-serif;" transform="matrix(1 0 0 1 776 1989)">can be adjusted by modifying the width of the blue rectangles.</text>
  <text style="stroke:none;fill:black;font-family:-apple-system,&quot;SF Pro Display&quot;,&quot;SF Pro Text&quot;,Helvetica,sans-serif;" transform="matrix(1 0 0 1 776 2007)">Modifications are automatically applied proportionally to all</text>
  <text style="stroke:none;fill:black;font-family:-apple-system,&quot;SF Pro Display&quot;,&quot;SF Pro Text&quot;,Helvetica,sans-serif;" transform="matrix(1 0 0 1 776 2025)">scales and weights.</text>
  <g id="" transform="matrix(1 0 0 1 1289 1933)">
   <path d="M 2.83203 3.11523 L 4.375 4.6582 C 5.22461 5.48828 6.19141 5.41992 7.06055 4.46289 L 17.2754 -6.66016 C 17.7051 -6.36719 18.0957 -6.37695 18.5645 -6.47461 L 19.6094 -6.68945 L 20.3027 -5.99609 L 20.2539 -5.47852 C 20.1855 -4.95117 20.3516 -4.53125 20.8496 -4.0332 L 21.6602 -3.22266 C 22.168 -2.71484 22.8223 -2.68555 23.3008 -3.16406 L 26.5527 -6.41602 C 27.0312 -6.89453 27.0117 -7.54883 26.5039 -8.05664 L 25.6836 -8.87695 C 25.1855 -9.375 24.7754 -9.55078 24.2383 -9.47266 L 23.7109 -9.41406 L 23.0566 -10.0781 L 23.3398 -11.2207 C 23.4863 -11.7871 23.3398 -12.2559 22.7148 -12.8613 L 20.3027 -15.2539 C 16.7578 -18.7793 12.2266 -18.6719 9.11133 -15.5371 C 8.69141 -15.1074 8.64258 -14.5215 8.91602 -14.0918 C 9.15039 -13.7207 9.62891 -13.4961 10.2734 -13.6621 C 11.7871 -14.043 13.3008 -13.9258 14.7852 -12.9199 L 14.1602 -11.3379 C 13.9258 -10.752 13.9453 -10.2734 14.1797 -9.83398 L 3.01758 0.439453 C 2.08008 1.30859 1.97266 2.25586 2.83203 3.11523 Z M 10.6738 -15.1465 C 13.3398 -17.1387 16.6504 -16.8262 19.0527 -14.4141 L 21.6797 -11.8066 C 21.9141 -11.5723 21.9434 -11.3867 21.8848 -11.0938 L 21.5039 -9.53125 L 23.0762 -7.95898 L 24.043 -8.04688 C 24.3262 -8.07617 24.4141 -8.05664 24.6387 -7.83203 L 25.2637 -7.20703 L 22.5098 -4.46289 L 21.8848 -5.07812 C 21.6602 -5.30273 21.6406 -5.40039 21.6699 -5.68359 L 21.7578 -6.64062 L 20.1953 -8.20312 L 18.5742 -7.89062 C 18.291 -7.83203 18.1445 -7.83203 17.9102 -8.07617 L 15.7324 -10.2539 C 15.5078 -10.4883 15.4785 -10.625 15.6055 -10.9473 L 16.5527 -13.2227 C 14.9512 -14.7559 12.8418 -15.6055 10.8008 -14.9512 C 10.7129 -14.9219 10.6445 -14.9414 10.6152 -14.9805 C 10.5859 -15.0293 10.5859 -15.0781 10.6738 -15.1465 Z M 4.10156 2.41211 C 3.61328 1.91406 3.78906 1.61133 4.12109 1.30859 L 15.0781 -8.80859 L 16.3086 -7.57812 L 6.15234 3.34961 C 5.84961 3.68164 5.46875 3.7793 5.06836 3.37891 Z"/>
  </g>
  <text style="stroke:none;fill:black;font-family:-apple-system,&quot;SF Pro Display&quot;,&quot;SF Pro Text&quot;,Helvetica,sans-serif;font-weight:bold;" transform="matrix(1 0 0 1 1289 1953)">Exporting</text>
  <text style="stroke:none;fill:black;font-family:-apple-system,&quot;SF Pro Display&quot;,&quot;SF Pro Text&quot;,Helvetica,sans-serif;" transform="matrix(1 0 0 1 1289 1971)">Symbols should be outlined when exporting to ensure the</text>
  <text style="stroke:none;fill:black;font-family:-apple-system,&quot;SF Pro Display&quot;,&quot;SF Pro Text&quot;,Helvetica,sans-serif;" transform="matrix(1 0 0 1 1289 1989)">design is preserved when submitting to Xcode.</text>
  <text id="template-version" style="stroke:none;fill:black;font-family:-apple-system,&quot;SF Pro Display&quot;,&quot;SF Pro Text&quot;,Helvetica,sans-serif;text-anchor:end;" transform="matrix(1 0 0 1 3036 1933)">Template v.1.0</text>
  <text style="stroke:none;fill:black;font-family:-apple-system,&quot;SF Pro Display&quot;,&quot;SF Pro Text&quot;,Helvetica,sans-serif;text-anchor:end;" transform="matrix(1 0 0 1 3036 1951)">Generated from bubble.right</text>
  <text style="stroke:none;fill:black;font-family:-apple-system,&quot;SF Pro Display&quot;,&quot;SF Pro Text&quot;,Helvetica,sans-serif;text-anchor:end;" transform="matrix(1 0 0 1 3036 1969)">Typeset at 100 points</text>
  <text style="stroke:none;fill:black;font-family:-apple-system,&quot;SF Pro Display&quot;,&quot;SF Pro Text&quot;,Helvetica,sans-serif;" transform="matrix(1 0 0 1 263 726)">Small</text>
  <text style="stroke:none;fill:black;font-family:-apple-system,&quot;SF Pro Display&quot;,&quot;SF Pro Text&quot;,Helvetica,sans-serif;" transform="matrix(1 0 0 1 263 1156)">Medium</text>
  <text style="stroke:none;fill:black;font-family:-apple-system,&quot;SF Pro Display&quot;,&quot;SF Pro Text&quot;,Helvetica,sans-serif;" transform="matrix(1 0 0 1 263 1586)">Large</text>
 </g>
 <g id="Guides">
  <g id="H-reference" style="fill:#27AAE1;stroke:none;" transform="matrix(1 0 0 1 339 696)">
   <path d="M 54.9316 0 L 57.666 0 L 30.5664 -70.459 L 28.0762 -70.459 L 0.976562 0 L 3.66211 0 L 12.9395 -24.4629 L 45.7031 -24.4629 Z M 29.1992 -67.0898 L 29.4434 -67.0898 L 44.8242 -26.709 L 13.8184 -26.709 Z"/>
  </g>
  <line id="Baseline-S" style="fill:none;stroke:#27AAE1;opacity:1;stroke-width:0.577;" x1="263" x2="3036" y1="696" y2="696"/>
  <line id="Capline-S" style="fill:none;stroke:#27AAE1;opacity:1;stroke-width:0.577;" x1="263" x2="3036" y1="625.541" y2="625.541"/>
  <g id="H-reference" style="fill:#27AAE1;stroke:none;" transform="matrix(1 0 0 1 339 1126)">
   <path d="M 54.9316 0 L 57.666 0 L 30.5664 -70.459 L 28.0762 -70.459 L 0.976562 0 L 3.66211 0 L 12.9395 -24.4629 L 45.7031 -24.4629 Z M 29.1992 -67.0898 L 29.4434 -67.0898 L 44.8242 -26.709 L 13.8184 -26.709 Z"/>
  </g>
  <line id="Baseline-M" style="fill:none;stroke:#27AAE1;opacity:1;stroke-width:0.577;" x1="263" x2="3036" y1="1126" y2="1126"/>
  <line id="Capline-M" style="fill:none;stroke:#27AAE1;opacity:1;stroke-width:0.577;" x1="263" x2="3036" y1="1055.54" y2="1055.54"/>
  <g id="H-reference" style="fill:#27AAE1;stroke:none;" transform="matrix(1 0 0 1 339 1556)">
   <path d="M 54.9316 0 L 57.666 0 L 30.5664 -70.459 L 28.0762 -70.459 L 0.976562 0 L 3.66211 0 L 12.9395 -24.4629 L 45.7031 -24.4629 Z M 29.1992 -67.0898 L 29.4434 -67.0898 L 44.8242 -26.709 L 13.8184 -26.709 Z"/>
  </g>
  <line id="Baseline-L" style="fill:none;stroke:#27AAE1;opacity:1;stroke-width:0.577;" x1="263" x2="3036" y1="1556" y2="1556"/>
  <line id="Capline-L" style="fill:none;stroke:#27AAE1;opacity:1;stroke-width:0.577;" x1="263" x2="3036" y1="1485.54" y2="1485.54"/>
  <rect height="119.336" id="left-margin" style="fill:#00AEEF;stroke:none;opacity:0.4;" width="12.4512" x="1383.58" y="1030.79"/>
  <rect height="119.336" id="right-margin" style="fill:#00AEEF;stroke:none;opacity:0.4;" width="12.4512" x="1503.65" y="1030.79"/>
 </g>
 <g id="Symbols">
  <g id="Black-L" transform="matrix(1 0 0 1 2846.24 1556)">
   <path d="M 114.6 38.5742 C 122.07 38.5742 126.66 33.5938 126.66 25.3906 L 126.66 12.8418 L 127.588 12.8418 C 144.531 12.8418 158.252 0.195312 158.252 -19.5801 L 158.252 -70.1172 C 158.252 -89.8926 145.703 -102.539 125.83 -102.539 L 48.4863 -102.539 C 28.6133 -102.539 16.0645 -89.8926 16.0645 -70.1172 L 16.0645 -19.5801 C 16.0645 0.195312 28.6133 12.8418 48.4863 12.8418 L 78.0273 12.8418 L 98.9746 31.1035 C 105.273 36.5234 109.521 38.5742 114.6 38.5742 Z M 109.766 16.2598 L 90.4785 -2.7832 C 86.8164 -6.34766 84.7168 -7.37305 79.7852 -7.37305 L 50 -7.37305 C 40.8203 -7.37305 36.3281 -11.8652 36.3281 -21.0938 L 36.3281 -68.6035 C 36.3281 -77.832 40.8203 -82.2754 50 -82.2754 L 124.316 -82.2754 C 133.496 -82.2754 138.037 -77.832 138.037 -68.6035 L 138.037 -21.0938 C 138.037 -11.8652 133.496 -7.37305 124.316 -7.37305 L 116.455 -7.37305 C 112.305 -7.37305 109.766 -5.56641 109.766 -0.732422 Z"/>
  </g>
  <g id="Heavy-L" transform="matrix(1 0 0 1 2550.07 1556)">
   <path d="M 115.039 37.2559 C 121.631 37.2559 125.635 32.8125 125.635 25.5371 L 125.635 12.0117 L 127.246 12.0117 C 144.385 12.0117 157.178 0 157.178 -19.2383 L 157.178 -69.6289 C 157.178 -88.8672 145.264 -100.879 125.879 -100.879 L 47.3145 -100.879 C 27.9785 -100.879 16.0645 -88.8184 16.0645 -69.6289 L 16.0645 -19.2383 C 16.0645 -0.0488281 27.9785 12.0117 47.3145 12.0117 L 80.127 12.0117 L 101.318 30.5176 C 106.836 35.3516 110.547 37.2559 115.039 37.2559 Z M 110.84 17.8711 L 91.2598 -1.31836 C 87.9395 -4.58984 85.9863 -5.46875 81.4453 -5.46875 L 48.4863 -5.46875 C 38.5742 -5.46875 33.5938 -10.498 33.5938 -20.4102 L 33.5938 -68.4082 C 33.5938 -78.3691 38.5742 -83.3496 48.4863 -83.3496 L 124.707 -83.3496 C 134.717 -83.3496 139.648 -78.3691 139.648 -68.4082 L 139.648 -20.4102 C 139.648 -10.498 134.717 -5.46875 124.707 -5.46875 L 116.943 -5.46875 C 113.037 -5.46875 110.84 -3.80859 110.84 0.585938 Z"/>
  </g>
  <g id="Bold-L" transform="matrix(1 0 0 1 2253.97 1556)">
   <path d="M 115.576 35.791 C 121.143 35.791 124.512 31.9336 124.512 25.7324 L 124.512 11.084 L 126.855 11.084 C 144.141 11.084 155.957 -0.244141 155.957 -18.8965 L 155.957 -69.043 C 155.957 -87.6953 144.727 -99.0234 125.977 -99.0234 L 46.0449 -99.0234 C 27.2461 -99.0234 16.0645 -87.6465 16.0645 -69.043 L 16.0645 -18.8965 C 16.0645 -0.292969 27.2461 11.084 46.0449 11.084 L 82.4219 11.084 L 103.906 29.9316 C 108.594 34.0332 111.67 35.791 115.576 35.791 Z M 112.061 19.6777 L 92.1387 0.292969 C 89.209 -2.58789 87.3535 -3.36914 83.3496 -3.36914 L 46.8262 -3.36914 C 35.9863 -3.36914 30.5176 -8.93555 30.5176 -19.6777 L 30.5176 -68.2617 C 30.5176 -78.9551 35.9863 -84.5703 46.8262 -84.5703 L 125.195 -84.5703 C 136.035 -84.5703 141.504 -78.9551 141.504 -68.2617 L 141.504 -19.6777 C 141.504 -8.93555 136.035 -3.36914 125.195 -3.36914 L 117.432 -3.36914 C 113.867 -3.36914 112.061 -1.9043 112.061 2.00195 Z"/>
  </g>
  <g id="Semibold-L" transform="matrix(1 0 0 1 1957.7 1556)">
   <path d="M 115.918 34.7656 C 120.801 34.7656 123.779 31.3477 123.779 25.8789 L 123.779 10.4492 L 126.562 10.4492 C 143.994 10.4492 155.078 -0.390625 155.078 -18.6035 L 155.078 -68.6523 C 155.078 -86.8652 144.385 -97.7539 126.025 -97.7539 L 45.166 -97.7539 C 26.7578 -97.7539 16.0645 -86.8164 16.0645 -68.6523 L 16.0645 -18.6035 C 16.0645 -0.439453 26.7578 10.4492 45.166 10.4492 L 83.9844 10.4492 L 105.664 29.4922 C 109.814 33.1055 112.451 34.7656 115.918 34.7656 Z M 112.891 20.9473 L 92.7246 1.41602 C 90.0879 -1.2207 88.3301 -1.9043 84.668 -1.9043 L 45.6543 -1.9043 C 34.2285 -1.9043 28.418 -7.91016 28.418 -19.1406 L 28.418 -68.1152 C 28.418 -79.3945 34.2285 -85.4004 45.6543 -85.4004 L 125.488 -85.4004 C 136.963 -85.4004 142.773 -79.3945 142.773 -68.1152 L 142.773 -19.1406 C 142.773 -7.91016 136.963 -1.9043 125.488 -1.9043 L 117.773 -1.9043 C 114.453 -1.9043 112.891 -0.537109 112.891 3.02734 Z"/>
  </g>
  <g id="Medium-L" transform="matrix(1 0 0 1 1661.3 1556)">
   <path d="M 116.162 33.9844 C 120.557 33.9844 123.193 30.9082 123.193 25.9766 L 123.193 9.96094 L 126.367 9.96094 C 143.896 9.96094 154.443 -0.537109 154.443 -18.457 L 154.443 -68.3594 C 154.443 -86.2793 144.092 -96.7773 126.025 -96.7773 L 44.4824 -96.7773 C 26.3672 -96.7773 16.0645 -86.2305 16.0645 -68.3594 L 16.0645 -18.457 C 16.0645 -0.585938 26.3672 9.96094 44.4824 9.96094 L 85.2051 9.96094 L 107.031 29.1504 C 110.742 32.4219 113.037 33.9844 116.162 33.9844 Z M 113.525 21.9238 L 93.2129 2.24609 C 90.7715 -0.195312 89.0625 -0.78125 85.6445 -0.78125 L 44.7754 -0.78125 C 32.9102 -0.78125 26.8066 -7.08008 26.8066 -18.75 L 26.8066 -68.0176 C 26.8066 -79.6875 32.9102 -86.0352 44.7754 -86.0352 L 125.732 -86.0352 C 137.695 -86.0352 143.701 -79.6875 143.701 -68.0176 L 143.701 -18.75 C 143.701 -7.08008 137.695 -0.78125 125.732 -0.78125 L 118.066 -0.78125 C 114.893 -0.78125 113.525 0.488281 113.525 3.75977 Z"/>
  </g>
  <g id="Regular-L" transform="matrix(1 0 0 1 1365.01 1556)">
   <path d="M 116.504 32.959 C 120.215 32.959 122.412 30.2734 122.412 26.123 L 122.412 9.32617 L 126.074 9.32617 C 143.75 9.32617 153.613 -0.683594 153.613 -18.1641 L 153.613 -67.9688 C 153.613 -85.4492 143.75 -95.5078 126.074 -95.5078 L 43.6035 -95.5078 C 25.8789 -95.5078 16.0645 -85.4004 16.0645 -67.9688 L 16.0645 -18.1641 C 16.0645 -0.78125 25.8789 9.32617 43.6035 9.32617 L 86.7676 9.32617 L 108.789 28.7109 C 111.963 31.543 113.818 32.959 116.504 32.959 Z M 114.307 23.1445 L 93.7988 3.36914 C 91.6016 1.17188 90.0391 0.683594 86.9141 0.683594 L 43.6523 0.683594 C 31.1523 0.683594 24.707 -6.05469 24.707 -18.2617 L 24.707 -67.9199 C 24.707 -80.127 31.1523 -86.8652 43.6523 -86.8652 L 126.025 -86.8652 C 138.623 -86.8652 144.971 -80.127 144.971 -67.9199 L 144.971 -18.2617 C 144.971 -6.05469 138.623 0.683594 126.025 0.683594 L 118.408 0.683594 C 115.43 0.683594 114.307 1.80664 114.307 4.78516 Z"/>
  </g>
  <g id="Light-L" transform="matrix(1 0 0 1 1069.2 1556)">
   <path d="M 116.943 31.5918 C 119.775 31.5918 121.533 29.541 121.533 26.3184 L 121.533 8.98438 L 126.074 8.98438 C 142.334 8.98438 151.807 -0.585938 151.807 -16.6992 L 151.807 -68.6035 C 151.807 -84.7168 142.334 -94.2871 126.074 -94.2871 L 41.7969 -94.2871 C 25.5371 -94.2871 16.0645 -84.6191 16.0645 -68.6035 L 16.0645 -16.6992 C 16.0645 -0.683594 25.5371 8.98438 41.7969 8.98438 L 88.6719 8.98438 L 111.035 28.418 C 113.379 30.4688 114.844 31.5918 116.943 31.5918 Z M 115.332 24.1211 L 94.2871 4.63867 C 92.334 2.7832 91.0645 2.34375 88.5254 2.34375 L 41.8945 2.34375 C 29.7363 2.34375 22.7051 -4.73633 22.7051 -16.8457 L 22.7051 -68.5059 C 22.7051 -80.5664 29.7363 -87.6953 41.8945 -87.6953 L 125.977 -87.6953 C 138.33 -87.6953 145.166 -80.5664 145.166 -68.5059 L 145.166 -16.8457 C 145.166 -4.73633 138.33 2.34375 125.977 2.34375 L 118.457 2.34375 C 116.211 2.34375 115.332 3.27148 115.332 5.51758 Z"/>
  </g>
  <g id="Thin-L" transform="matrix(1 0 0 1 773.683 1556)">
   <path d="M 117.48 29.7852 C 119.141 29.7852 120.361 28.5156 120.361 26.5137 L 120.361 8.54492 L 126.074 8.54492 C 140.43 8.54492 149.414 -0.488281 149.414 -14.7949 L 149.414 -69.3848 C 149.414 -83.6914 140.43 -92.7246 126.074 -92.7246 L 39.3555 -92.7246 C 25.0488 -92.7246 16.0645 -83.5449 16.0645 -69.3848 L 16.0645 -14.7949 C 16.0645 -0.634766 25.0488 8.54492 39.3555 8.54492 L 91.2109 8.54492 L 114.014 28.0273 C 115.234 29.0527 116.211 29.7852 117.48 29.7852 Z M 116.65 25.4395 L 94.873 6.34766 C 93.3105 4.93164 92.4316 4.58984 90.625 4.58984 L 39.502 4.58984 C 27.832 4.58984 19.9707 -2.97852 19.9707 -14.9414 L 19.9707 -69.2383 C 19.9707 -81.2012 27.832 -88.7695 39.502 -88.7695 L 125.928 -88.7695 C 137.939 -88.7695 145.459 -81.2012 145.459 -69.2383 L 145.459 -14.9414 C 145.459 -2.97852 137.939 4.58984 125.928 4.58984 L 118.555 4.58984 C 117.188 4.58984 116.65 5.17578 116.65 6.54297 Z"/>
  </g>
  <g id="Ultralight-L" transform="matrix(1 0 0 1 477.607 1556)">
   <path d="M 117.773 28.8574 C 118.848 28.8574 119.775 28.0273 119.775 26.6113 L 119.775 8.30078 L 126.074 8.30078 C 139.453 8.30078 148.145 -0.439453 148.145 -13.8184 L 148.145 -69.8242 C 148.145 -83.2031 139.453 -91.8945 126.074 -91.8945 L 38.1348 -91.8945 C 24.8047 -91.8945 16.0645 -83.0078 16.0645 -69.8242 L 16.0645 -13.8184 C 16.0645 -0.585938 24.8047 8.30078 38.1348 8.30078 L 92.5293 8.30078 L 115.576 27.832 C 116.162 28.3203 116.943 28.8574 117.773 28.8574 Z M 117.334 26.0742 L 95.166 7.22656 C 93.8477 6.05469 93.1152 5.71289 91.6992 5.71289 L 38.3301 5.71289 C 26.8555 5.71289 18.6035 -2.09961 18.6035 -13.9648 L 18.6035 -69.6289 C 18.6035 -81.4941 26.8555 -89.3555 38.3301 -89.3555 L 125.928 -89.3555 C 137.744 -89.3555 145.605 -81.4941 145.605 -69.6289 L 145.605 -13.9648 C 145.605 -2.09961 137.744 5.71289 125.928 5.71289 L 118.604 5.71289 C 117.725 5.71289 117.334 6.15234 117.334 7.03125 Z"/>
  </g>
  <g id="Black-M" transform="matrix(1 0 0 1 2865.58 1126)">
   <path d="M 88.4766 23.0469 C 94.9219 23.0469 99.0234 18.75 99.0234 11.5723 L 99.0234 2.97852 L 99.3652 2.97852 C 111.523 2.97852 123.193 -7.42188 123.193 -22.7539 L 123.193 -63.2812 C 123.193 -78.6133 112.793 -89.0137 97.4609 -89.0137 L 38.1836 -89.0137 C 22.8516 -89.0137 12.4512 -78.6133 12.4512 -63.2812 L 12.4512 -22.7539 C 12.4512 -7.42188 22.8516 2.97852 38.1836 2.97852 L 58.7402 2.97852 L 74.8047 16.748 C 80.2246 21.4355 84.0332 23.0469 88.4766 23.0469 Z M 84.1797 2.97852 L 69.2871 -11.377 C 66.1621 -14.4043 64.502 -15.332 60.4004 -15.332 L 39.8438 -15.332 C 33.9355 -15.332 30.7617 -18.2617 30.7617 -24.4141 L 30.7617 -61.6211 C 30.7617 -67.7734 33.9355 -70.7031 39.8438 -70.7031 L 95.8008 -70.7031 C 101.66 -70.7031 104.883 -67.7734 104.883 -61.6211 L 104.883 -24.4141 C 104.883 -18.2617 101.66 -15.332 95.8008 -15.332 L 89.6973 -15.332 C 86.4258 -15.332 84.1797 -13.8184 84.1797 -9.81445 Z"/>
  </g>
  <g id="Heavy-M" transform="matrix(1 0 0 1 2569.23 1126)">
   <path d="M 88.8184 21.9238 C 94.5801 21.9238 98.1445 18.1152 98.1445 11.7676 L 98.1445 2.14844 L 98.9746 2.14844 C 111.67 2.14844 122.461 -7.71484 122.461 -22.8027 L 122.461 -62.5488 C 122.461 -77.6367 112.646 -87.5 97.5098 -87.5 L 37.4023 -87.5 C 22.2656 -87.5 12.4512 -77.6367 12.4512 -62.5488 L 12.4512 -22.8027 C 12.4512 -7.71484 22.2656 2.14844 37.4023 2.14844 L 60.498 2.14844 L 76.7578 16.2109 C 81.543 20.4102 84.9121 21.9238 88.8184 21.9238 Z M 85.1074 4.54102 L 70.0195 -10.1074 C 67.1875 -12.8418 65.625 -13.6719 61.8164 -13.6719 L 38.6719 -13.6719 C 31.8359 -13.6719 28.2715 -17.1387 28.2715 -24.0723 L 28.2715 -61.2793 C 28.2715 -68.2129 31.8359 -71.6797 38.6719 -71.6797 L 96.2402 -71.6797 C 103.076 -71.6797 106.641 -68.2129 106.641 -61.2793 L 106.641 -24.0723 C 106.641 -17.1387 103.076 -13.6719 96.2402 -13.6719 L 90.1855 -13.6719 C 87.0605 -13.6719 85.1074 -12.3047 85.1074 -8.59375 Z"/>
  </g>
  <g id="Bold-M" transform="matrix(1 0 0 1 2272.94 1126)">
   <path d="M 89.2578 20.7031 C 94.1895 20.7031 97.2168 17.3828 97.2168 11.9141 L 97.2168 1.2207 L 98.5352 1.2207 C 111.865 1.2207 121.631 -7.95898 121.631 -22.8027 L 121.631 -61.7676 C 121.631 -76.6113 112.5 -85.791 97.5586 -85.791 L 36.4746 -85.791 C 21.582 -85.791 12.4512 -76.5625 12.4512 -61.7676 L 12.4512 -22.8027 C 12.4512 -8.00781 21.582 1.2207 36.4746 1.2207 L 62.4512 1.2207 L 78.9062 15.625 C 83.1055 19.2871 85.8398 20.7031 89.2578 20.7031 Z M 86.084 6.20117 L 70.8496 -8.69141 C 68.3594 -11.1816 66.8457 -11.8652 63.4277 -11.8652 L 37.3535 -11.8652 C 29.4922 -11.8652 25.5371 -15.8203 25.5371 -23.6328 L 25.5371 -60.9375 C 25.5371 -68.75 29.4922 -72.7539 37.3535 -72.7539 L 96.7285 -72.7539 C 104.639 -72.7539 108.545 -68.75 108.545 -60.9375 L 108.545 -23.6328 C 108.545 -15.8203 104.639 -11.8652 96.7285 -11.8652 L 90.7227 -11.8652 C 87.7441 -11.8652 86.084 -10.5957 86.084 -7.22656 Z"/>
  </g>
  <g id="Semibold-M" transform="matrix(1 0 0 1 1976.52 1126)">
   <path d="M 89.5508 19.873 C 93.8965 19.873 96.5332 16.8457 96.5332 12.0117 L 96.5332 0.585938 L 98.2422 0.585938 C 112.012 0.585938 121.045 -8.1543 121.045 -22.8027 L 121.045 -61.2305 C 121.045 -75.8789 112.402 -84.668 97.6074 -84.668 L 35.8887 -84.668 C 21.0938 -84.668 12.4512 -75.8301 12.4512 -61.2305 L 12.4512 -22.8027 C 12.4512 -8.20312 21.0938 0.585938 35.8887 0.585938 L 63.7695 0.585938 L 80.4199 15.2344 C 84.1309 18.5059 86.4746 19.873 89.5508 19.873 Z M 86.8164 7.42188 L 71.4355 -7.71484 C 69.1895 -10.0098 67.6758 -10.5469 64.5508 -10.5469 L 36.4258 -10.5469 C 27.832 -10.5469 23.6328 -14.9414 23.6328 -23.3887 L 23.6328 -60.6934 C 23.6328 -69.1406 27.832 -73.4863 36.4258 -73.4863 L 97.0703 -73.4863 C 105.713 -73.4863 109.863 -69.1406 109.863 -60.6934 L 109.863 -23.3887 C 109.863 -14.9414 105.713 -10.5469 97.0703 -10.5469 L 91.0645 -10.5469 C 88.2324 -10.5469 86.8164 -9.42383 86.8164 -6.29883 Z"/>
  </g>
  <g id="Medium-M" transform="matrix(1 0 0 1 1680.03 1126)">
   <path d="M 89.7461 19.2383 C 93.7012 19.2383 96.0449 16.4551 96.0449 12.1094 L 96.0449 0.146484 L 97.998 0.146484 C 112.109 0.146484 120.605 -8.30078 120.605 -22.8516 L 120.605 -60.791 C 120.605 -75.293 112.354 -83.7891 97.6562 -83.7891 L 35.4004 -83.7891 C 20.752 -83.7891 12.4512 -75.293 12.4512 -60.791 L 12.4512 -22.8516 C 12.4512 -8.34961 20.752 0.146484 35.4004 0.146484 L 64.7949 0.146484 L 81.543 14.8926 C 84.9121 17.8711 86.9629 19.2383 89.7461 19.2383 Z M 87.3535 8.30078 L 71.875 -6.98242 C 69.7754 -9.13086 68.3594 -9.61914 65.3809 -9.61914 L 35.7422 -9.61914 C 26.6113 -9.61914 22.168 -14.2578 22.168 -23.1445 L 22.168 -60.498 C 22.168 -69.3848 26.6113 -74.0234 35.7422 -74.0234 L 97.3633 -74.0234 C 106.543 -74.0234 110.889 -69.3848 110.889 -60.498 L 110.889 -23.1445 C 110.889 -14.2578 106.543 -9.61914 97.3633 -9.61914 L 91.3574 -9.61914 C 88.5742 -9.61914 87.3535 -8.49609 87.3535 -5.61523 Z"/>
  </g>
  <g id="Regular-M" transform="matrix(1 0 0 1 1383.58 1126)">
   <path d="M 90.0391 18.4082 C 93.457 18.4082 95.3613 15.9668 95.3613 12.207 L 95.3613 -0.488281 L 97.7051 -0.488281 C 112.256 -0.488281 120.068 -8.49609 120.068 -22.8516 L 120.068 -60.2539 C 120.068 -74.6094 112.256 -82.6172 97.7051 -82.6172 L 34.8145 -82.6172 C 20.2637 -82.6172 12.4512 -74.5605 12.4512 -60.2539 L 12.4512 -22.8516 C 12.4512 -8.54492 20.2637 -0.488281 34.8145 -0.488281 L 66.1621 -0.488281 L 83.0078 14.502 C 85.9863 17.1387 87.6465 18.4082 90.0391 18.4082 Z M 88.0371 9.47266 L 72.4121 -6.05469 C 70.5566 -7.95898 69.1895 -8.34961 66.4551 -8.34961 L 34.8145 -8.34961 C 25 -8.34961 20.3125 -13.3789 20.3125 -22.9004 L 20.3125 -60.2539 C 20.3125 -69.7754 25 -74.7559 34.8145 -74.7559 L 97.7051 -74.7559 C 107.568 -74.7559 112.207 -69.7754 112.207 -60.2539 L 112.207 -22.9004 C 112.207 -13.3789 107.568 -8.34961 97.7051 -8.34961 L 91.6992 -8.34961 C 89.0625 -8.34961 88.0371 -7.32422 88.0371 -4.6875 Z"/>
  </g>
  <g id="Light-M" transform="matrix(1 0 0 1 1087.68 1126)">
   <path d="M 90.4297 17.1875 C 93.0176 17.1875 94.5801 15.2832 94.5801 12.3535 L 94.5801 -0.830078 L 97.7051 -0.830078 C 110.938 -0.830078 118.457 -8.44727 118.457 -21.5332 L 118.457 -60.791 C 118.457 -73.9258 110.938 -81.543 97.7051 -81.543 L 33.2031 -81.543 C 19.9707 -81.543 12.4512 -73.877 12.4512 -60.791 L 12.4512 -21.5332 C 12.4512 -8.49609 19.9707 -0.830078 33.2031 -0.830078 L 67.8711 -0.830078 L 85.0586 14.2578 C 87.207 16.1621 88.5742 17.1875 90.4297 17.1875 Z M 88.916 10.3516 L 72.8516 -4.88281 C 71.2402 -6.49414 70.1172 -6.83594 67.8711 -6.83594 L 33.252 -6.83594 C 23.6816 -6.83594 18.5059 -12.207 18.5059 -21.582 L 18.5059 -60.7422 C 18.5059 -70.166 23.6816 -75.4883 33.252 -75.4883 L 97.6562 -75.4883 C 107.324 -75.4883 112.402 -70.166 112.402 -60.7422 L 112.402 -21.582 C 112.402 -12.207 107.324 -6.83594 97.6562 -6.83594 L 91.7969 -6.83594 C 89.6973 -6.83594 88.916 -6.05469 88.916 -4.00391 Z"/>
  </g>
  <g id="Thin-M" transform="matrix(1 0 0 1 792.042 1126)">
   <path d="M 90.918 15.5273 C 92.4805 15.5273 93.5547 14.4043 93.5547 12.5977 L 93.5547 -1.2207 L 97.7051 -1.2207 C 109.229 -1.2207 116.309 -8.34961 116.309 -19.8242 L 116.309 -61.5234 C 116.309 -72.998 109.229 -80.127 97.7051 -80.127 L 31.0547 -80.127 C 19.5312 -80.127 12.4512 -72.9004 12.4512 -61.5234 L 12.4512 -19.8242 C 12.4512 -8.44727 19.5312 -1.2207 31.0547 -1.2207 L 70.166 -1.2207 L 87.7441 13.8672 C 88.8672 14.8926 89.7949 15.5273 90.918 15.5273 Z M 90.0879 11.4746 L 73.3887 -3.36914 C 72.1191 -4.58984 71.3379 -4.83398 69.7754 -4.83398 L 31.1523 -4.83398 C 21.9727 -4.83398 16.0645 -10.6445 16.0645 -19.9219 L 16.0645 -61.4258 C 16.0645 -70.7031 21.9727 -76.5137 31.1523 -76.5137 L 97.6074 -76.5137 C 106.982 -76.5137 112.646 -70.7031 112.646 -61.4258 L 112.646 -19.9219 C 112.646 -10.6445 106.982 -4.83398 97.6074 -4.83398 L 91.8945 -4.83398 C 90.625 -4.83398 90.0879 -4.3457 90.0879 -3.07617 Z"/>
  </g>
  <g id="Ultralight-M" transform="matrix(1 0 0 1 495.893 1126)">
   <path d="M 91.2109 14.6973 C 92.1875 14.6973 92.9688 13.916 92.9688 12.6953 L 92.9688 -1.41602 L 97.7051 -1.41602 C 108.35 -1.41602 115.186 -8.25195 115.186 -18.9453 L 115.186 -61.9141 C 115.186 -72.5586 108.35 -79.3945 97.7051 -79.3945 L 29.9316 -79.3945 C 19.2871 -79.3945 12.4512 -72.4121 12.4512 -61.9141 L 12.4512 -18.9453 C 12.4512 -8.39844 19.2871 -1.41602 29.9316 -1.41602 L 71.3379 -1.41602 L 89.1113 13.7207 C 89.7461 14.2578 90.4297 14.6973 91.2109 14.6973 Z M 90.7227 12.1094 L 73.6816 -2.58789 C 72.5586 -3.56445 71.9727 -3.80859 70.752 -3.80859 L 30.0781 -3.80859 C 21.0938 -3.80859 14.8438 -9.81445 14.8438 -19.043 L 14.8438 -61.7676 C 14.8438 -70.9961 21.0938 -77.002 30.0781 -77.002 L 97.6074 -77.002 C 106.787 -77.002 112.793 -70.9961 112.793 -61.7676 L 112.793 -19.043 C 112.793 -9.81445 106.787 -3.80859 97.6074 -3.80859 L 91.8945 -3.80859 C 91.0645 -3.80859 90.7227 -3.4668 90.7227 -2.63672 Z"/>
  </g>
  <g id="Black-S" transform="matrix(1 0 0 1 2880.28 696)">
   <path d="M 69.3359 10.3516 C 74.3652 10.3516 77.5391 7.03125 77.5391 1.46484 L 77.5391 -5.37109 L 77.832 -5.37109 C 87.4023 -5.37109 96.4844 -13.4766 96.4844 -25.4883 L 96.4844 -57.1289 C 96.4844 -69.1406 88.3789 -77.2461 76.3672 -77.2461 L 29.8828 -77.2461 C 17.8711 -77.2461 9.76562 -69.1406 9.76562 -57.1289 L 9.76562 -25.4883 C 9.76562 -13.4766 17.8711 -5.37109 29.8828 -5.37109 L 46.1426 -5.37109 L 58.7402 5.46875 C 62.9395 9.08203 65.918 10.3516 69.3359 10.3516 Z M 66.0156 -5.17578 L 54.3457 -16.4551 C 51.9043 -18.7988 50.6348 -19.5312 47.4121 -19.5312 L 31.1523 -19.5312 C 26.4648 -19.5312 23.9258 -21.875 23.9258 -26.7578 L 23.9258 -55.8594 C 23.9258 -60.7422 26.4648 -63.0859 31.1523 -63.0859 L 75.0977 -63.0859 C 79.7852 -63.0859 82.3242 -60.7422 82.3242 -55.8594 L 82.3242 -26.7578 C 82.3242 -21.875 79.7852 -19.5312 75.0977 -19.5312 L 70.3125 -19.5312 C 67.7734 -19.5312 66.0156 -18.3594 66.0156 -15.2344 Z"/>
  </g>
  <g id="Heavy-S" transform="matrix(1 0 0 1 2583.76 696)">
   <path d="M 69.5801 9.66797 C 74.1211 9.66797 76.9531 6.5918 76.9531 1.5625 L 76.9531 -5.95703 L 77.5391 -5.95703 C 87.6953 -5.95703 96.0938 -13.6719 96.0938 -25.6348 L 96.0938 -56.543 C 96.0938 -68.5059 88.4277 -76.2207 76.416 -76.2207 L 29.4434 -76.2207 C 17.4316 -76.2207 9.76562 -68.5059 9.76562 -56.543 L 9.76562 -25.6348 C 9.76562 -13.6719 17.4316 -5.95703 29.4434 -5.95703 L 47.2656 -5.95703 L 60.0098 5.07812 C 63.8184 8.39844 66.4551 9.66797 69.5801 9.66797 Z M 66.6016 -4.10156 L 54.8828 -15.625 C 52.6367 -17.8223 51.3672 -18.457 48.3398 -18.457 L 30.4199 -18.457 C 25 -18.457 22.2656 -21.0938 22.2656 -26.6113 L 22.2656 -55.5664 C 22.2656 -61.0352 25 -63.7207 30.4199 -63.7207 L 75.4395 -63.7207 C 80.8594 -63.7207 83.6426 -61.0352 83.6426 -55.5664 L 83.6426 -26.6113 C 83.6426 -21.0938 80.8594 -18.457 75.4395 -18.457 L 70.6543 -18.457 C 68.1641 -18.457 66.6016 -17.334 66.6016 -14.3555 Z"/>
  </g>
  <g id="Bold-S" transform="matrix(1 0 0 1 2287.27 696)">
   <path d="M 69.873 8.88672 C 73.877 8.88672 76.3184 6.10352 76.3184 1.66016 L 76.3184 -6.64062 L 77.1973 -6.64062 C 87.9883 -6.64062 95.6543 -13.916 95.6543 -25.8301 L 95.6543 -55.8594 C 95.6543 -67.7734 88.4766 -75.0488 76.4648 -75.0488 L 28.9551 -75.0488 C 16.9434 -75.0488 9.76562 -67.7734 9.76562 -55.8594 L 9.76562 -25.8301 C 9.76562 -13.916 16.9434 -6.64062 28.9551 -6.64062 L 48.584 -6.64062 L 61.4258 4.6875 C 64.8438 7.66602 67.041 8.88672 69.873 8.88672 Z M 67.2852 -2.92969 L 55.4688 -14.6973 C 53.4668 -16.6992 52.1973 -17.2363 49.4141 -17.2363 L 29.5898 -17.2363 C 23.3398 -17.2363 20.3613 -20.2637 20.3613 -26.4648 L 20.3613 -55.2246 C 20.3613 -61.4258 23.3398 -64.4531 29.5898 -64.4531 L 75.8301 -64.4531 C 82.1289 -64.4531 85.0586 -61.4258 85.0586 -55.2246 L 85.0586 -26.4648 C 85.0586 -20.2637 82.1289 -17.2363 75.8301 -17.2363 L 71.0938 -17.2363 C 68.6035 -17.2363 67.2852 -16.1621 67.2852 -13.4277 Z"/>
  </g>
  <g id="Semibold-S" transform="matrix(1 0 0 1 1990.7 696)">
   <path d="M 70.0195 8.30078 C 73.7305 8.30078 75.8789 5.81055 75.8789 1.75781 L 75.8789 -7.08008 L 76.9531 -7.08008 C 88.1836 -7.08008 95.3613 -14.0625 95.3613 -25.9277 L 95.3613 -55.3711 C 95.3613 -67.2852 88.5254 -74.2676 76.5137 -74.2676 L 28.6621 -74.2676 C 16.6504 -74.2676 9.76562 -67.2852 9.76562 -55.3711 L 9.76562 -25.9277 C 9.76562 -14.0625 16.6504 -7.08008 28.6621 -7.08008 L 49.4629 -7.08008 L 62.4023 4.39453 C 65.5273 7.12891 67.4805 8.30078 70.0195 8.30078 Z M 67.7246 -2.09961 L 55.8594 -14.0137 C 54.0039 -15.918 52.7832 -16.3574 50.1465 -16.3574 L 29.0527 -16.3574 C 22.2168 -16.3574 19.0918 -19.6777 19.0918 -26.3672 L 19.0918 -54.9805 C 19.0918 -61.6699 22.2168 -64.9414 29.0527 -64.9414 L 76.0742 -64.9414 C 82.959 -64.9414 86.084 -61.6699 86.084 -54.9805 L 86.084 -26.3672 C 86.084 -19.6777 82.959 -16.3574 76.0742 -16.3574 L 71.3379 -16.3574 C 68.8965 -16.3574 67.7246 -15.3809 67.7246 -12.7441 Z"/>
  </g>
  <g id="Medium-S" transform="matrix(1 0 0 1 1694.09 696)">
   <path d="M 70.166 7.91016 C 73.584 7.91016 75.5371 5.56641 75.5371 1.80664 L 75.5371 -7.42188 L 76.8066 -7.42188 C 88.3789 -7.42188 95.166 -14.209 95.166 -26.0254 L 95.166 -55.0293 C 95.166 -66.8945 88.5254 -73.6816 76.5137 -73.6816 L 28.418 -73.6816 C 16.4062 -73.6816 9.76562 -66.8945 9.76562 -55.0293 L 9.76562 -26.0254 C 9.76562 -14.209 16.4062 -7.42188 28.418 -7.42188 L 50.1465 -7.42188 L 63.1348 4.15039 C 66.0645 6.73828 67.7734 7.91016 70.166 7.91016 Z M 68.1152 -1.46484 L 56.1523 -13.5254 C 54.4434 -15.332 53.1738 -15.7227 50.6836 -15.7227 L 28.6133 -15.7227 C 21.3379 -15.7227 18.0664 -19.2383 18.0664 -26.2695 L 18.0664 -54.7852 C 18.0664 -61.8164 21.3379 -65.332 28.6133 -65.332 L 76.3184 -65.332 C 83.5938 -65.332 86.8164 -61.8164 86.8164 -54.7852 L 86.8164 -26.2695 C 86.8164 -19.2383 83.5938 -15.7227 76.3184 -15.7227 L 71.582 -15.7227 C 69.1406 -15.7227 68.1152 -14.7949 68.1152 -12.2559 Z"/>
  </g>
  <g id="Regular-S" transform="matrix(1 0 0 1 1397.53 696)">
   <path d="M 70.3613 7.37305 C 73.4375 7.37305 75.0977 5.22461 75.0977 1.85547 L 75.0977 -7.86133 L 76.5625 -7.86133 C 88.5742 -7.86133 94.873 -14.3555 94.873 -26.1719 L 94.873 -54.5898 C 94.873 -66.4062 88.5742 -72.9004 76.5625 -72.9004 L 28.0762 -72.9004 C 16.0645 -72.9004 9.76562 -66.4062 9.76562 -54.5898 L 9.76562 -26.1719 C 9.76562 -14.3555 16.0645 -7.86133 28.0762 -7.86133 L 50.9766 -7.86133 L 64.0625 3.85742 C 66.748 6.25 68.2129 7.37305 70.3613 7.37305 Z M 68.5547 -0.634766 L 56.543 -12.8906 C 54.9805 -14.5508 53.7598 -14.8926 51.416 -14.8926 L 28.0762 -14.8926 C 20.2148 -14.8926 16.7969 -18.6523 16.7969 -26.1719 L 16.7969 -54.5898 C 16.7969 -62.0605 20.2148 -65.8203 28.0762 -65.8203 L 76.5625 -65.8203 C 84.4238 -65.8203 87.8418 -62.0605 87.8418 -54.5898 L 87.8418 -26.1719 C 87.8418 -18.6523 84.4238 -14.8926 76.5625 -14.8926 L 71.8262 -14.8926 C 69.4336 -14.8926 68.5547 -14.0137 68.5547 -11.6211 Z"/>
  </g>
  <g id="Light-S" transform="matrix(1 0 0 1 1101.55 696)">
   <path d="M 70.7031 6.29883 C 73.0469 6.29883 74.4141 4.63867 74.4141 2.00195 L 74.4141 -8.1543 L 76.5625 -8.1543 C 87.4023 -8.1543 93.4082 -14.2578 93.4082 -25 L 93.4082 -55.0781 C 93.4082 -65.8203 87.4023 -71.9238 76.5625 -71.9238 L 26.6113 -71.9238 C 15.7715 -71.9238 9.76562 -65.7715 9.76562 -55.0781 L 9.76562 -25 C 9.76562 -14.3066 15.7715 -8.1543 26.6113 -8.1543 L 52.5391 -8.1543 L 65.8691 3.61328 C 67.8711 5.41992 69.043 6.29883 70.7031 6.29883 Z M 69.3359 0.146484 L 56.9336 -11.9141 C 55.5664 -13.2812 54.5898 -13.5742 52.6367 -13.5742 L 26.6602 -13.5742 C 19.043 -13.5742 15.1855 -17.627 15.1855 -25.0488 L 15.1855 -55.0293 C 15.1855 -62.4512 19.043 -66.5039 26.6602 -66.5039 L 76.5137 -66.5039 C 84.1797 -66.5039 87.9883 -62.4512 87.9883 -55.0293 L 87.9883 -25.0488 C 87.9883 -17.627 84.1797 -13.5742 76.5137 -13.5742 L 71.875 -13.5742 C 70.0195 -13.5742 69.3359 -12.8418 69.3359 -11.0352 Z"/>
  </g>
  <g id="Thin-S" transform="matrix(1 0 0 1 805.763 696)">
   <path d="M 71.1426 4.88281 C 72.5586 4.88281 73.4863 3.80859 73.4863 2.19727 L 73.4863 -8.49609 L 76.5625 -8.49609 C 85.9375 -8.49609 91.5527 -14.1602 91.5527 -23.4863 L 91.5527 -55.7129 C 91.5527 -64.9902 85.9375 -70.6543 76.5625 -70.6543 L 24.7559 -70.6543 C 15.3809 -70.6543 9.76562 -64.9414 9.76562 -55.7129 L 9.76562 -23.4863 C 9.76562 -14.2578 15.3809 -8.49609 24.7559 -8.49609 L 54.541 -8.49609 L 68.2129 3.32031 C 69.3359 4.29688 70.1172 4.88281 71.1426 4.88281 Z M 70.3613 1.17188 L 57.4219 -10.5469 C 56.3477 -11.5723 55.6641 -11.8164 54.2969 -11.8164 L 24.8047 -11.8164 C 17.5781 -11.8164 13.0859 -16.2598 13.0859 -23.5352 L 13.0859 -55.6152 C 13.0859 -62.9395 17.5781 -67.3828 24.8047 -67.3828 L 76.5137 -67.3828 C 83.8867 -67.3828 88.2324 -62.9395 88.2324 -55.6152 L 88.2324 -23.5352 C 88.2324 -16.2598 83.8867 -11.8164 76.5137 -11.8164 L 71.9727 -11.8164 C 70.8496 -11.8164 70.3613 -11.377 70.3613 -10.2051 Z"/>
  </g>
  <g id="Ultralight-S" transform="matrix(1 0 0 1 509.54 696)">
   <path d="M 71.3867 4.10156 C 72.3145 4.10156 72.998 3.41797 72.998 2.29492 L 72.998 -8.69141 L 76.5625 -8.69141 C 85.1562 -8.69141 90.5762 -14.1113 90.5762 -22.7051 L 90.5762 -56.0059 C 90.5762 -64.5996 85.1562 -70.0195 76.5625 -70.0195 L 23.7793 -70.0195 C 15.1855 -70.0195 9.76562 -64.502 9.76562 -56.0059 L 9.76562 -22.7051 C 9.76562 -14.209 15.1855 -8.69141 23.7793 -8.69141 L 55.5664 -8.69141 L 69.4336 3.17383 C 70.0684 3.71094 70.6543 4.10156 71.3867 4.10156 Z M 70.8984 1.70898 L 57.666 -9.86328 C 56.7383 -10.6934 56.2012 -10.8887 55.1758 -10.8887 L 23.8281 -10.8887 C 16.7969 -10.8887 11.9629 -15.5273 11.9629 -22.8027 L 11.9629 -55.957 C 11.9629 -63.1836 16.7969 -67.8223 23.8281 -67.8223 L 76.4648 -67.8223 C 83.7402 -67.8223 88.3301 -63.1836 88.3301 -55.957 L 88.3301 -22.8027 C 88.3301 -15.5273 83.7402 -10.8887 76.4648 -10.8887 L 72.0215 -10.8887 C 71.2402 -10.8887 70.8984 -10.5957 70.8984 -9.81445 Z"/>
  </g>
 </g>
</svg>
